<?xml version="1.0" standalone="no"?>
<!DOCTYPE svg PUBLIC "-//W3C//DTD SVG 20010904//EN"
 "http://www.w3.org/TR/2001/REC-SVG-20010904/DTD/svg10.dtd">
<svg version="1.0" xmlns="http://www.w3.org/2000/svg"
 width="512.000000pt" height="512.000000pt" viewBox="0 0 512.000000 512.000000"
 preserveAspectRatio="xMidYMid meet">
<metadata>
Created by potrace 1.14, written by Peter Selinger 2001-2017
</metadata>
<g transform="translate(0.000000,512.000000) scale(0.100000,-0.100000)"
fill="#000000" stroke="none">
<path d="M2398 4544 c-119 -36 -235 -151 -326 -323 -53 -100 -147 -361 -134
-372 4 -3 43 -18 87 -32 101 -33 197 -72 191 -78 -2 -2 9 -4 24 -5 23 -1 31 5
39 27 5 16 8 29 5 29 -2 0 2 14 11 30 9 17 13 30 11 30 -9 0 45 134 85 210 37
72 90 140 109 140 39 0 147 -195 201 -365 17 -55 33 -102 35 -104 2 -2 14 1
27 7 20 9 127 50 259 96 l46 17 -25 82 c-37 121 -100 267 -149 348 -24 39 -44
73 -44 75 0 2 -28 32 -63 67 -85 86 -169 128 -268 132 -45 2 -93 -3 -121 -11z"/>
<path d="M3678 3795 c-2 -2 -37 -6 -78 -10 -350 -29 -897 -232 -1410 -522
l-95 -54 -53 16 c-205 65 -420 -75 -439 -286 l-6 -60 -71 -54 c-39 -30 -84
-65 -101 -80 -16 -14 -50 -42 -75 -62 -88 -74 -326 -319 -385 -398 -138 -184
-196 -328 -191 -469 7 -203 154 -344 389 -372 65 -7 179 -8 232 0 22 3 60 8
85 11 25 4 65 11 90 17 25 5 54 11 65 14 66 13 86 18 145 36 163 51 324 109
474 173 l38 16 -197 113 -198 113 -132 -43 c-72 -23 -144 -45 -161 -48 -222
-45 -374 -57 -441 -35 -38 12 -41 28 -16 91 56 144 294 395 630 666 22 18 34
21 58 15 17 -4 66 -8 110 -7 98 0 157 25 228 96 57 57 80 103 95 191 6 35 13
42 72 73 36 20 93 51 128 70 69 39 230 119 302 151 25 11 81 37 126 57 244
109 543 199 709 213 177 16 265 3 265 -40 0 -13 -3 -27 -7 -31 -4 -3 -8 -13
-9 -21 -6 -42 -112 -191 -210 -294 -37 -39 -65 -73 -63 -75 2 -2 45 -36 94
-75 50 -40 109 -91 132 -113 l43 -40 46 49 c25 26 72 82 105 123 33 41 67 83
75 93 8 9 14 20 14 23 0 3 12 25 28 48 106 158 138 352 80 477 -67 145 -202
224 -398 235 -52 3 -100 7 -107 9 -6 2 -13 2 -15 0z"/>
<path d="M1098 3775 c-134 -29 -249 -115 -300 -224 -18 -38 -22 -64 -22 -146
0 -85 4 -111 28 -173 32 -85 81 -173 143 -255 23 -31 43 -59 43 -62 0 -2 10
-15 23 -28 12 -13 48 -51 80 -86 l57 -62 24 24 c19 19 219 185 245 204 2 1
-29 37 -69 80 -121 129 -220 284 -220 343 0 27 4 29 53 37 99 17 283 -2 437
-45 l65 -18 70 24 c81 28 220 40 279 23 38 -10 44 -8 140 46 56 31 103 58 106
60 10 9 -48 34 -265 115 -154 58 -337 109 -475 134 -82 14 -94 15 -240 19 -92
2 -166 -2 -202 -10z"/>
<path d="M2980 3056 c-58 -24 -147 -63 -199 -88 -92 -45 -93 -46 -70 -61 13
-8 69 -43 124 -77 145 -91 377 -258 534 -384 122 -98 335 -300 386 -367 73
-93 115 -176 115 -226 0 -46 -41 -57 -189 -49 -178 9 -178 9 -208 73 -87 182
-320 254 -479 147 -45 -31 -42 -32 -229 53 -163 74 -339 167 -505 266 l-138
83 -43 -13 c-60 -18 -185 -27 -194 -13 -8 14 -34 -1 -113 -64 -34 -27 -61 -54
-59 -60 2 -5 12 -14 23 -20 10 -6 21 -13 24 -16 8 -8 124 -85 135 -89 5 -2 30
-18 55 -36 130 -91 563 -320 787 -416 98 -42 103 -45 121 -89 54 -126 206
-224 335 -215 47 3 120 32 168 66 28 20 34 21 92 9 98 -19 115 -21 240 -24
261 -7 423 67 503 229 26 55 29 69 28 160 -1 127 -29 205 -130 367 -120 191
-450 507 -739 710 -33 23 -62 44 -65 47 -3 3 -39 28 -80 55 -41 28 -86 58
-100 67 -25 17 -28 16 -130 -25z"/>
<path d="M2226 1493 c-16 -8 -34 -16 -40 -18 -6 -1 -23 -7 -37 -13 -15 -6 -66
-25 -115 -42 -49 -17 -92 -34 -96 -38 -20 -20 125 -374 196 -477 173 -252 426
-302 623 -122 95 87 170 209 247 401 20 48 20 66 2 66 -51 0 -206 115 -262
195 l-20 29 -33 -99 c-43 -136 -103 -256 -152 -307 l-41 -43 -39 44 c-51 58
-108 171 -154 312 -21 63 -40 117 -44 121 -3 3 -19 0 -35 -9z"/>
</g>
</svg>
